<svg width="18" height="18" viewBox="0 0 18 18" fill="none" xmlns="http://www.w3.org/2000/svg">
<path d="M17.6028 8.62971C17.6028 9.00554 17.4587 9.36885 17.1892 9.63193C16.926 9.90127 16.5626 10.0516 16.1866 10.0516H10.5221V15.7141C10.5221 16.0899 10.3717 16.4532 10.1022 16.7163C9.83905 16.9794 9.48188 17.1297 9.10592 17.1297C8.72995 17.1297 8.36651 16.9794 8.10334 16.7163C7.83389 16.4532 7.68351 16.0899 7.68351 15.7141V10.0516H2.01893C1.64296 10.0516 1.27952 9.90127 1.01635 9.63193C0.75317 9.36885 0.602783 9.00554 0.602783 8.62971C0.602783 8.25389 0.75317 7.89685 1.01635 7.6275C1.27952 7.36442 1.64296 7.21409 2.01893 7.21409H7.68351V1.5516C7.68351 1.17577 7.83389 0.812471 8.10334 0.549391C8.36651 0.280047 8.72995 0.129715 9.10592 0.129715C9.48188 0.129715 9.83905 0.280047 10.1022 0.549391C10.3717 0.812471 10.5221 1.17577 10.5221 1.5516V7.21409H16.1866C16.5626 7.21409 16.926 7.36442 17.1892 7.6275C17.4587 7.89685 17.6028 8.25389 17.6028 8.62971Z" fill="white"/>
</svg>
