<svg width="18" height="18" viewBox="0 0 18 18" fill="none" xmlns="http://www.w3.org/2000/svg">
<path d="M17.2471 9.38782C17.2471 9.76365 17.1029 10.1269 16.8335 10.39C16.5703 10.6594 16.2069 10.8097 15.8309 10.8097H10.1663V16.4722C10.1663 16.848 10.016 17.2113 9.74652 17.4744C9.48334 17.7375 9.12617 17.8878 8.7502 17.8878C8.37424 17.8878 8.0108 17.7375 7.74762 17.4744C7.47818 17.2113 7.32779 16.848 7.32779 16.4722V10.8097H1.66321C1.28725 10.8097 0.923812 10.6594 0.660635 10.39C0.397457 10.1269 0.24707 9.76365 0.24707 9.38782C0.24707 9.01199 0.397457 8.65495 0.660635 8.38561C0.923812 8.12253 1.28725 7.97219 1.66321 7.97219H7.32779V2.3097C7.32779 1.93387 7.47818 1.57057 7.74762 1.30749C8.0108 1.03815 8.37424 0.887817 8.7502 0.887817C9.12617 0.887817 9.48334 1.03815 9.74652 1.30749C10.016 1.57057 10.1663 1.93387 10.1663 2.3097V7.97219H15.8309C16.2069 7.97219 16.5703 8.12253 16.8335 8.38561C17.1029 8.65495 17.2471 9.01199 17.2471 9.38782Z" fill="#53B175"/>
</svg>
